<svg xmlns="http://www.w3.org/2000/svg" xmlns:xlink="http://www.w3.org/1999/xlink" width="500" zoomAndPan="magnify" viewBox="0 0 375 374.999991" height="500" preserveAspectRatio="xMidYMid meet" version="1.0"><defs><g/><clipPath id="6aa3f720fb"><rect x="0" width="318" y="0" height="284"/></clipPath></defs><rect x="-37.5" width="450" fill="#ffffff" y="-37.499999" height="449.999989" fill-opacity="1"/><rect x="-37.5" width="450" fill="#c5774a" y="-37.499999" height="449.999989" fill-opacity="1"/><g transform="matrix(1, 0, 0, 1, 29, 45)"><g clip-path="url(#6aa3f720fb)"><g fill="#f7f3e9" fill-opacity="1"><g transform="translate(0.264785, 218.061441)"><g><path d="M 14.671875 0 L 14.671875 -155.5625 L 69.109375 -155.5625 L 96 -20 L 100 -20 L 126.890625 -155.5625 L 181.34375 -155.5625 L 181.34375 0 L 152.890625 0 L 152.890625 -134 L 148.890625 -134 L 122.234375 0 L 73.78125 0 L 47.109375 -134 L 43.109375 -134 L 43.109375 0 Z M 14.671875 0 "/></g></g></g><g fill="#f7f3e9" fill-opacity="1"><g transform="translate(196.280136, 218.061441)"><g><path d="M 14.671875 0 L 14.671875 -155.5625 L 44 -155.5625 L 44 -26.671875 L 115.125 -26.671875 L 115.125 0 Z M 14.671875 0 "/></g></g></g></g></g></svg>